ffmpeg started on 2016-12-08 at 12:20:09
Report written to "Output/x264/results/ffmpeg/crowd_run_2160p50veryslow2000k.log"
Command line:
Tools/ffmpeg/ffmpeg -benchmark -y -i Input/y4m/crowd_run_2160p50.y4m -c:v libx264 -preset veryslow -b:v 2000k -an Output/x264/encoded/crowd_run_2160p50veryslow2000k.mkv
ffmpeg version N-82227-gdb23fde Copyright (c) 2000-2016 the FFmpeg developers
  built with gcc 5.4.0 (Ubuntu 5.4.0-6ubuntu1~16.04.2) 20160609
  configuration: --prefix=/home/jaroslav/ffmpeg_build --pkg-config-flags=--static --extra-cflags=-I/home/jaroslav/ffmpeg_build/include --extra-ldflags=-L/home/jaroslav/ffmpeg_build/lib --bindir=/home/jaroslav/bin --enable-gpl --enable-libass --enable-libfdk-aac --enable-libfreetype --enable-libmp3lame --enable-libopus --enable-libtheora --enable-libvorbis --enable-libvpx --enable-libx264 --enable-libx265 --enable-nvenc --enable-libmfx --enable-libxvid --enable-libgsm --enable-libopencore-amrnb --enable-version3 --enable-nonfree
  libavutil      55. 35.100 / 55. 35.100
  libavcodec     57. 66.101 / 57. 66.101
  libavformat    57. 57.100 / 57. 57.100
  libavdevice    57.  2.100 / 57.  2.100
  libavfilter     6. 66.100 /  6. 66.100
  libswscale      4.  3.100 /  4.  3.100
  libswresample   2.  4.100 /  2.  4.100
  libpostproc    54.  2.100 / 54.  2.100
Input #0, yuv4mpegpipe, from 'Input/y4m/crowd_run_2160p50.y4m':
  Duration: 00:00:10.00, start: 0.000000, bitrate: 4976642 kb/s
    Stream #0:0: Video: rawvideo (I420 / 0x30323449), yuv420p(progressive), 3840x2160, SAR 1:1 DAR 16:9, 50 fps, 50 tbr, 50 tbn, 50 tbc
[libx264 @ 0x3a0e1c0] using SAR=1/1
[libx264 @ 0x3a0e1c0] DPB size (16 frames, 518400 mbs) > level limit (5 frames, 184320 mbs)
[libx264 @ 0x3a0e1c0] using cpu capabilities: MMX2 SSE2Fast SSSE3 SSE4.2 AVX FMA3 AVX2 LZCNT BMI2
[libx264 @ 0x3a0e1c0] profile High, level 5.2
[libx264 @ 0x3a0e1c0] 264 - core 148 - H.264/MPEG-4 AVC codec - Copyleft 2003-2016 - http://www.videolan.org/x264.html - options: cabac=1 ref=16 deblock=1:0:0 analyse=0x3:0x133 me=umh subme=10 psy=1 psy_rd=1.00:0.00 mixed_ref=1 me_range=24 chroma_me=1 trellis=2 8x8dct=1 cqm=0 deadzone=21,11 fast_pskip=1 chroma_qp_offset=-2 threads=6 lookahead_threads=1 sliced_threads=0 nr=0 decimate=1 interlaced=0 bluray_compat=0 constrained_intra=0 bframes=8 b_pyramid=2 b_adapt=2 b_bias=0 direct=3 weightb=1 open_gop=0 weightp=2 keyint=250 keyint_min=25 scenecut=40 intra_refresh=0 rc_lookahead=60 rc=abr mbtree=1 bitrate=2000 ratetol=1.0 qcomp=0.60 qpmin=0 qpmax=69 qpstep=4 ip_ratio=1.40 aq=1:1.00
Output #0, matroska, to 'Output/x264/encoded/crowd_run_2160p50veryslow2000k.mkv':
  Metadata:
    encoder         : Lavf57.57.100
    Stream #0:0: Video: h264 (libx264) (H264 / 0x34363248), yuv420p, 3840x2160 [SAR 1:1 DAR 16:9], q=-1--1, 2000 kb/s, 50 fps, 1k tbn, 50 tbc
    Metadata:
      encoder         : Lavc57.66.101 libx264
    Side data:
      cpb: bitrate max/min/avg: 0/0/2000000 buffer size: 0 vbv_delay: -1
Stream mapping:
  Stream #0:0 -> #0:0 (rawvideo (native) -> h264 (libx264))
Press [q] to stop, [?] for help
frame=   19 fps=0.0 q=0.0 size=       0kB time=00:00:00.00 bitrate=N/A speed=   0x    frame=   25 fps= 24 q=0.0 size=       0kB time=00:00:00.00 bitrate=N/A speed=   0x    frame=   29 fps= 19 q=0.0 size=       0kB time=00:00:00.00 bitrate=N/A speed=   0x    frame=   37 fps= 17 q=0.0 size=       0kB time=00:00:00.00 bitrate=N/A speed=   0x    frame=   44 fps= 17 q=0.0 size=       0kB time=00:00:00.00 bitrate=N/A speed=   0x    frame=   51 fps= 16 q=0.0 size=       0kB time=00:00:00.00 bitrate=N/A speed=   0x    frame=   58 fps= 16 q=0.0 size=       0kB time=00:00:00.00 bitrate=N/A speed=   0x    frame=   62 fps= 15 q=0.0 size=       0kB time=00:00:00.00 bitrate=N/A speed=   0x    frame=   71 fps= 15 q=0.0 size=       0kB time=00:00:00.00 bitrate=N/A speed=   0x    frame=   72 fps=6.0 q=0.0 size=       0kB time=00:00:00.00 bitrate=N/A speed=   0x    frame=   77 fps=6.0 q=56.0 size=       1kB time=-00:00:00.01 bitrate=N/A speed=N/A    frame=   78 fps=5.6 q=52.0 size=       1kB time=00:00:00.00 bitrate=5888.0kbits/s speed=7.21e-05x    frame=   82 fps=5.3 q=60.0 size=       1kB time=00:00:00.08 bitrate=  72.7kbits/s speed=0.00528x    frame=   86 fps=5.0 q=64.0 size=       1kB time=00:00:00.16 bitrate=  36.6kbits/s speed=0.00939x    frame=   90 fps=4.8 q=64.0 size=       1kB time=00:00:00.24 bitrate=  24.4kbits/s speed=0.0128x    frame=   94 fps=4.6 q=64.0 size=       1kB time=00:00:00.32 bitrate=  18.3kbits/s speed=0.0157x    frame=   98 fps=4.4 q=64.0 size=       1kB time=00:00:00.40 bitrate=  14.7kbits/s speed=0.0182x    frame=  100 fps=4.4 q=64.0 size=       1kB time=00:00:00.44 bitrate=  13.4kbits/s speed=0.0194x    frame=  102 fps=4.3 q=64.0 size=       1kB time=00:00:00.48 bitrate=  12.2kbits/s speed=0.0204x    frame=  103 fps=4.1 q=64.0 size=       1kB time=00:00:00.50 bitrate=  11.8kbits/s speed=0.0201x    frame=  105 fps=4.1 q=64.0 size=       1kB time=00:00:00.54 bitrate=  10.9kbits/s speed=0.0211x    frame=  107 fps=3.9 q=64.0 size=       1kB time=00:00:00.58 bitrate=  10.1kbits/s speed=0.0214x    frame=  109 fps=3.9 q=63.0 size=       1kB time=00:00:00.62 bitrate=   9.5kbits/s speed=0.0223x    frame=  111 fps=3.8 q=63.0 size=       1kB time=00:00:00.66 bitrate=   8.9kbits/s speed=0.0226x    frame=  113 fps=3.8 q=63.0 size=       1kB time=00:00:00.70 bitrate=   8.4kbits/s speed=0.0235x    frame=  115 fps=3.6 q=63.0 size=       1kB time=00:00:00.74 bitrate=   7.9kbits/s speed=0.0233x    frame=  117 fps=3.6 q=63.0 size=       1kB time=00:00:00.78 bitrate=   7.5kbits/s speed=0.0241x    frame=  120 fps=3.6 q=63.0 size=       1kB time=00:00:00.84 bitrate=   7.0kbits/s speed=0.0251x    frame=  121 fps=3.5 q=63.0 size=       1kB time=00:00:00.86 bitrate=   6.8kbits/s speed=0.0251x    frame=  124 fps=3.4 q=63.0 size=       1kB time=00:00:00.92 bitrate=   6.4kbits/s speed=0.0256x    frame=  126 fps=3.4 q=63.0 size=       1kB time=00:00:00.96 bitrate=   6.1kbits/s speed=0.0263x    frame=  128 fps=3.3 q=63.0 size=       1kB time=00:00:01.00 bitrate=   5.9kbits/s speed=0.0259x    frame=  130 fps=3.3 q=63.0 size=       1kB time=00:00:01.04 bitrate=   5.7kbits/s speed=0.0265x    frame=  134 fps=3.2 q=63.0 size=       1kB time=00:00:01.12 bitrate=   5.3kbits/s speed=0.0271x    frame=  137 fps=3.2 q=63.0 size=       1kB time=00:00:01.18 bitrate=   5.0kbits/s speed=0.0276x    frame=  139 fps=3.2 q=63.0 size=       1kB time=00:00:01.22 bitrate=   4.8kbits/s speed=0.028x    frame=  141 fps=3.1 q=63.0 size=       1kB time=00:00:01.26 bitrate=   4.7kbits/s speed=0.0279x    frame=  142 fps=3.1 q=63.0 size=       1kB time=00:00:01.28 bitrate=   4.6kbits/s speed=0.028x    frame=  145 fps=3.1 q=62.0 size=       1kB time=00:00:01.34 bitrate=   4.4kbits/s speed=0.0286x    frame=  146 fps=3.1 q=63.0 size=       1kB time=00:00:01.36 bitrate=   4.3kbits/s speed=0.0287x    frame=  148 fps=3.0 q=62.0 size=       1kB time=00:00:01.40 bitrate=   4.2kbits/s speed=0.0287x    frame=  150 fps=3.0 q=62.0 size=       1kB time=00:00:01.44 bitrate=   4.1kbits/s speed=0.0284x    frame=  152 fps=3.0 q=62.0 size=       1kB time=00:00:01.48 bitrate=   4.0kbits/s speed=0.0289x    frame=  156 fps=2.9 q=62.0 size=       1kB time=00:00:01.56 bitrate=   3.8kbits/s speed=0.0291x    frame=  158 fps=2.9 q=62.0 size=       1kB time=00:00:01.60 bitrate=   3.7kbits/s speed=0.0295x    frame=  160 fps=2.9 q=62.0 size=       1kB time=00:00:01.64 bitrate=   3.6kbits/s speed=0.0297x    frame=  162 fps=2.9 q=62.0 size=       1kB time=00:00:01.68 bitrate=   3.5kbits/s speed=0.0299x    frame=  164 fps=2.8 q=62.0 size=       1kB time=00:00:01.72 bitrate=   3.4kbits/s speed=0.0297x    frame=  166 fps=2.8 q=62.0 size=       1kB time=00:00:01.76 bitrate=   3.3kbits/s speed=0.03x    frame=  168 fps=2.8 q=62.0 size=       1kB time=00:00:01.80 bitrate=   3.3kbits/s speed=0.0298x    frame=  170 fps=2.8 q=62.0 size=       1kB time=00:00:01.84 bitrate=   3.2kbits/s speed=0.0301x    frame=  172 fps=2.7 q=62.0 size=       1kB time=00:00:01.88 bitrate=   3.1kbits/s speed=0.0298x    frame=  174 fps=2.7 q=62.0 size=       1kB time=00:00:01.92 bitrate=   3.1kbits/s speed=0.0301x    frame=  178 fps=2.7 q=62.0 size=       1kB time=00:00:02.00 bitrate=   2.9kbits/s speed=0.0301x    frame=  180 fps=2.7 q=62.0 size=       1kB time=00:00:02.04 bitrate=   2.9kbits/s speed=0.0304x    frame=  182 fps=2.7 q=62.0 size=       1kB time=00:00:02.08 bitrate=   2.8kbits/s speed=0.0305x    frame=  183 fps=2.7 q=62.0 size=       1kB time=00:00:02.10 bitrate=   2.8kbits/s speed=0.0305x    frame=  184 fps=2.7 q=62.0 size=       1kB time=00:00:02.12 bitrate=   2.8kbits/s speed=0.0306x    frame=  186 fps=2.6 q=61.0 size=       1kB time=00:00:02.16 bitrate=   2.7kbits/s speed=0.0305x    frame=  187 fps=2.6 q=62.0 size=       1kB time=00:00:02.18 bitrate=   2.7kbits/s speed=0.0305x    frame=  190 fps=2.6 q=61.0 size=       1kB time=00:00:02.24 bitrate=   2.6kbits/s speed=0.0312x    frame=  191 fps=2.6 q=61.0 size=       1kB time=00:00:02.26 bitrate=   2.6kbits/s speed=0.0309x    frame=  192 fps=2.6 q=61.0 size=       1kB time=00:00:02.28 bitrate=   2.6kbits/s speed=0.0305x    frame=  196 fps=2.6 q=61.0 size=       1kB time=00:00:02.36 bitrate=   2.5kbits/s speed=0.0309x    frame=  197 fps=2.6 q=61.0 size=       1kB time=00:00:02.38 bitrate=   2.5kbits/s speed=0.0309x    frame=  198 fps=2.5 q=61.0 size=       1kB time=00:00:02.40 bitrate=   2.5kbits/s speed=0.0309x    frame=  199 fps=2.5 q=61.0 size=       1kB time=00:00:02.42 bitrate=   2.4kbits/s speed=0.0309x    frame=  200 fps=2.5 q=61.0 size=       1kB time=00:00:02.44 bitrate=   2.4kbits/s speed=0.0309x    frame=  202 fps=2.5 q=61.0 size=       1kB time=00:00:02.48 bitrate=   2.4kbits/s speed=0.0311x    frame=  204 fps=2.5 q=61.0 size=       1kB time=00:00:02.52 bitrate=   2.3kbits/s speed=0.0312x    frame=  205 fps=2.5 q=61.0 size=       1kB time=00:00:02.54 bitrate=   2.3kbits/s speed=0.0308x    frame=  207 fps=2.5 q=61.0 size=       1kB time=00:00:02.58 bitrate=   2.3kbits/s speed=0.031x    frame=  210 fps=2.5 q=61.0 size=       1kB time=00:00:02.64 bitrate=   2.2kbits/s speed=0.0311x    frame=  211 fps=2.5 q=61.0 size=       1kB time=00:00:02.66 bitrate=   2.2kbits/s speed=0.031x    frame=  214 fps=2.4 q=61.0 size=       1kB time=00:00:02.72 bitrate=   2.2kbits/s speed=0.031x    frame=  215 fps=2.4 q=61.0 size=       1kB time=00:00:02.74 bitrate=   2.1kbits/s speed=0.031x    frame=  218 fps=2.4 q=61.0 size=       1kB time=00:00:02.80 bitrate=   2.1kbits/s speed=0.0314x    frame=  219 fps=2.4 q=61.0 size=       1kB time=00:00:02.82 bitrate=   2.1kbits/s speed=0.0312x    frame=  220 fps=2.4 q=61.0 size=       1kB time=00:00:02.84 bitrate=   2.1kbits/s speed=0.0309x    frame=  222 fps=2.4 q=61.0 size=       1kB time=00:00:02.88 bitrate=   2.0kbits/s speed=0.0311x    frame=  224 fps=2.4 q=61.0 size=       1kB time=00:00:02.92 bitrate=   2.0kbits/s speed=0.0312x    frame=  225 fps=2.4 q=61.0 size=       1kB time=00:00:02.94 bitrate=   2.0kbits/s speed=0.0312x    frame=  226 fps=2.4 q=61.0 size=       1kB time=00:00:02.96 bitrate=   2.0kbits/s speed=0.0311x    frame=  227 fps=2.4 q=61.0 size=       1kB time=00:00:02.98 bitrate=   2.0kbits/s speed=0.0311x    frame=  229 fps=2.4 q=61.0 size=       1kB time=00:00:03.02 bitrate=   1.9kbits/s speed=0.0311x    frame=  230 fps=2.4 q=61.0 size=       1kB time=00:00:03.04 bitrate=   1.9kbits/s speed=0.0312x    frame=  231 fps=2.4 q=61.0 size=       1kB time=00:00:03.06 bitrate=   1.9kbits/s speed=0.0312x    frame=  233 fps=2.3 q=61.0 size=       1kB time=00:00:03.10 bitrate=   1.9kbits/s speed=0.031x    frame=  235 fps=2.3 q=61.0 size=       1kB time=00:00:03.14 bitrate=   1.9kbits/s speed=0.031x    frame=  237 fps=2.3 q=61.0 size=       1kB time=00:00:03.18 bitrate=   1.9kbits/s speed=0.0312x    frame=  239 fps=2.3 q=61.0 size=       1kB time=00:00:03.22 bitrate=   1.8kbits/s speed=0.0309x    frame=  241 fps=2.3 q=61.0 size=       1kB time=00:00:03.26 bitrate=   1.8kbits/s speed=0.0311x    frame=  245 fps=2.3 q=61.0 size=       1kB time=00:00:03.34 bitrate=   1.8kbits/s speed=0.0309x    frame=  246 fps=2.3 q=61.0 size=       1kB time=00:00:03.36 bitrate=   1.8kbits/s speed=0.031x    frame=  250 fps=2.3 q=61.0 size=       1kB time=00:00:03.44 bitrate=   1.7kbits/s speed=0.0312x    frame=  251 fps=2.2 q=61.0 size=       1kB time=00:00:03.46 bitrate=   1.7kbits/s speed=0.0309x    frame=  255 fps=2.3 q=61.0 size=       1kB time=00:00:03.54 bitrate=   1.7kbits/s speed=0.0314x    frame=  256 fps=2.3 q=61.0 size=       1kB time=00:00:03.56 bitrate=   1.7kbits/s speed=0.0313x    frame=  257 fps=2.2 q=61.0 size=       1kB time=00:00:03.58 bitrate=   1.6kbits/s speed=0.0311x    frame=  260 fps=2.2 q=61.0 size=       1kB time=00:00:03.64 bitrate=   1.6kbits/s speed=0.0312x    frame=  261 fps=2.2 q=61.0 size=       1kB time=00:00:03.66 bitrate=   1.6kbits/s speed=0.0312x    frame=  263 fps=2.2 q=61.0 size=       1kB time=00:00:03.70 bitrate=   1.6kbits/s speed=0.0313x    frame=  264 fps=2.2 q=61.0 size=       1kB time=00:00:03.72 bitrate=   1.6kbits/s speed=0.0311x    frame=  265 fps=2.2 q=61.0 size=       1kB time=00:00:03.74 bitrate=   1.6kbits/s speed=0.0311x    frame=  267 fps=2.2 q=61.0 size=       1kB time=00:00:03.78 bitrate=   1.6kbits/s speed=0.0313x    frame=  268 fps=2.2 q=61.0 size=       1kB time=00:00:03.80 bitrate=   1.5kbits/s speed=0.031x    frame=  270 fps=2.2 q=61.0 size=       1kB time=00:00:03.84 bitrate=   1.5kbits/s speed=0.0311x    frame=  273 fps=2.2 q=61.0 size=       1kB time=00:00:03.90 bitrate=   1.5kbits/s speed=0.0313x    frame=  274 fps=2.2 q=61.0 size=       1kB time=00:00:03.92 bitrate=   1.5kbits/s speed=0.0311x    frame=  275 fps=2.2 q=61.0 size=       1kB time=00:00:03.94 bitrate=   1.5kbits/s speed=0.0311x    frame=  277 fps=2.2 q=61.0 size=       1kB time=00:00:03.98 bitrate=   1.5kbits/s speed=0.0312x    frame=  278 fps=2.2 q=61.0 size=       1kB time=00:00:04.00 bitrate=   1.5kbits/s speed=0.0312x    frame=  280 fps=2.1 q=61.0 size=       1kB time=00:00:04.04 bitrate=   1.5kbits/s speed=0.031x    frame=  282 fps=2.2 q=61.0 size=       1kB time=00:00:04.08 bitrate=   1.4kbits/s speed=0.0311x    frame=  284 fps=2.1 q=61.0 size=       1kB time=00:00:04.12 bitrate=   1.4kbits/s speed=0.0312x    frame=  286 fps=2.1 q=61.0 size=       1kB time=00:00:04.16 bitrate=   1.4kbits/s speed=0.0311x    frame=  287 fps=2.1 q=61.0 size=       1kB time=00:00:04.18 bitrate=   1.4kbits/s speed=0.031x    frame=  290 fps=2.1 q=61.0 size=       1kB time=00:00:04.24 bitrate=   1.4kbits/s speed=0.0311x    frame=  292 fps=2.1 q=61.0 size=       1kB time=00:00:04.28 bitrate=   1.4kbits/s speed=0.0312x    frame=  294 fps=2.1 q=61.0 size=       1kB time=00:00:04.32 bitrate=   1.4kbits/s speed=0.031x    frame=  295 fps=2.1 q=61.0 size=       1kB time=00:00:04.34 bitrate=   1.4kbits/s speed=0.031x    frame=  299 fps=2.1 q=61.0 size=       1kB time=00:00:04.42 bitrate=   1.3kbits/s speed=0.0313x    frame=  300 fps=2.1 q=61.0 size=       1kB time=00:00:04.44 bitrate=   1.3kbits/s speed=0.0311x    frame=  302 fps=2.1 q=61.0 size=       1kB time=00:00:04.48 bitrate=   1.3kbits/s speed=0.031x    frame=  304 fps=2.1 q=61.0 size=       1kB time=00:00:04.52 bitrate=   1.3kbits/s speed=0.0311x    frame=  306 fps=2.1 q=61.0 size=       1kB time=00:00:04.56 bitrate=   1.3kbits/s speed=0.0312x    frame=  307 fps=2.1 q=61.0 size=       1kB time=00:00:04.58 bitrate=   1.3kbits/s speed=0.031x    frame=  308 fps=2.1 q=61.0 size=       1kB time=00:00:04.60 bitrate=   1.3kbits/s speed=0.031x    frame=  311 fps=2.1 q=61.0 size=       1kB time=00:00:04.66 bitrate=   1.3kbits/s speed=0.0312x    frame=  312 fps=2.1 q=61.0 size=       1kB time=00:00:04.68 bitrate=   1.3kbits/s speed=0.0312x    frame=  313 fps=2.1 q=61.0 size=       1kB time=00:00:04.70 bitrate=   1.3kbits/s speed=0.0311x    frame=  314 fps=2.1 q=61.0 size=       1kB time=00:00:04.72 bitrate=   1.2kbits/s speed=0.0311x    frame=  315 fps=2.1 q=61.0 size=       1kB time=00:00:04.74 bitrate=   1.2kbits/s speed=0.031x    frame=  317 fps=2.1 q=61.0 size=       1kB time=00:00:04.78 bitrate=   1.2kbits/s speed=0.0311x    frame=  319 fps=2.0 q=61.0 size=       1kB time=00:00:04.82 bitrate=   1.2kbits/s speed=0.031x    frame=  320 fps=2.0 q=61.0 size=       1kB time=00:00:04.84 bitrate=   1.2kbits/s speed=0.031x    frame=  322 fps=2.1 q=61.0 size=       1kB time=00:00:04.88 bitrate=   1.2kbits/s speed=0.0311x    frame=  324 fps=2.1 q=61.0 size=       1kB time=00:00:04.92 bitrate=   1.2kbits/s speed=0.0313x    frame=  325 fps=2.1 q=61.0 size=       1kB time=00:00:04.94 bitrate=   1.2kbits/s speed=0.0312x    frame=  331 fps=2.1 q=61.0 size=    1246kB time=00:00:05.06 bitrate=2017.1kbits/s speed=0.0318x    frame=  333 fps=2.1 q=61.0 size=    1246kB time=00:00:05.10 bitrate=2001.2kbits/s speed=0.0319x    frame=  336 fps=2.1 q=61.0 size=    1246kB time=00:00:05.16 bitrate=1978.0kbits/s speed=0.0321x    frame=  338 fps=2.1 q=61.0 size=    1246kB time=00:00:05.20 bitrate=1962.8kbits/s speed=0.0322x    frame=  340 fps=2.1 q=61.0 size=    1246kB time=00:00:05.24 bitrate=1947.8kbits/s speed=0.0323x    frame=  342 fps=2.1 q=61.0 size=    1246kB time=00:00:05.28 bitrate=1933.0kbits/s speed=0.0324x    frame=  344 fps=2.1 q=61.0 size=    1246kB time=00:00:05.32 bitrate=1918.5kbits/s speed=0.0324x    frame=  346 fps=2.1 q=61.0 size=    1246kB time=00:00:05.36 bitrate=1904.2kbits/s speed=0.0326x    frame=  347 fps=2.1 q=61.0 size=    1246kB time=00:00:05.38 bitrate=1897.1kbits/s speed=0.0325x    frame=  349 fps=2.1 q=61.0 size=    1246kB time=00:00:05.42 bitrate=1883.1kbits/s speed=0.0324x    frame=  350 fps=2.1 q=61.0 size=    1246kB time=00:00:05.44 bitrate=1876.2kbits/s speed=0.0324x    frame=  353 fps=2.1 q=61.0 size=    1246kB time=00:00:05.50 bitrate=1855.7kbits/s speed=0.0324x    frame=  354 fps=2.1 q=61.0 size=    1246kB time=00:00:05.52 bitrate=1849.0kbits/s speed=0.0324x    frame=  355 fps=2.1 q=61.0 size=    1246kB time=00:00:05.54 bitrate=1842.3kbits/s speed=0.0324x    frame=  357 fps=2.1 q=61.0 size=    1246kB time=00:00:05.58 bitrate=1829.1kbits/s speed=0.0323x    frame=  359 fps=2.1 q=61.0 size=    1246kB time=00:00:05.62 bitrate=1816.1kbits/s speed=0.0324x    frame=  361 fps=2.1 q=61.0 size=    1246kB time=00:00:05.66 bitrate=1803.3kbits/s speed=0.0323x    frame=  362 fps=2.1 q=61.0 size=    1246kB time=00:00:05.68 bitrate=1796.9kbits/s speed=0.0323x    frame=  364 fps=2.1 q=61.0 size=    1246kB time=00:00:05.72 bitrate=1784.4kbits/s speed=0.0323x    frame=  365 fps=2.1 q=61.0 size=    1246kB time=00:00:05.74 bitrate=1778.1kbits/s speed=0.0323x    frame=  366 fps=2.1 q=61.0 size=    1246kB time=00:00:05.76 bitrate=1772.0kbits/s speed=0.0323x    frame=  368 fps=2.1 q=61.0 size=    1246kB time=00:00:05.80 bitrate=1759.7kbits/s speed=0.0324x    frame=  369 fps=2.0 q=61.0 size=    1246kB time=00:00:05.82 bitrate=1753.7kbits/s speed=0.0322x    frame=  370 fps=2.0 q=61.0 size=    1246kB time=00:00:05.84 bitrate=1747.7kbits/s speed=0.0322x    frame=  373 fps=2.0 q=61.0 size=    1246kB time=00:00:05.90 bitrate=1729.9kbits/s speed=0.0322x    frame=  375 fps=2.0 q=61.0 size=    1246kB time=00:00:05.94 bitrate=1718.3kbits/s speed=0.0323x    frame=  376 fps=2.0 q=61.0 size=    1246kB time=00:00:05.96 bitrate=1712.5kbits/s speed=0.0322x    frame=  379 fps=2.0 q=61.0 size=    1246kB time=00:00:06.02 bitrate=1695.4kbits/s speed=0.0321x    frame=  380 fps=2.0 q=61.0 size=    1246kB time=00:00:06.04 bitrate=1689.8kbits/s speed=0.0322x    frame=  382 fps=2.0 q=61.0 size=    1246kB time=00:00:06.08 bitrate=1678.7kbits/s speed=0.0322x    frame=  383 fps=2.0 q=61.0 size=    1246kB time=00:00:06.10 bitrate=1673.2kbits/s speed=0.0322x    frame=  384 fps=2.0 q=61.0 size=    1246kB time=00:00:06.12 bitrate=1667.8kbits/s speed=0.0322x    frame=  385 fps=2.0 q=61.0 size=    1246kB time=00:00:06.14 bitrate=1662.3kbits/s speed=0.0322x    frame=  386 fps=2.0 q=61.0 size=    1246kB time=00:00:06.16 bitrate=1656.9kbits/s speed=0.0321x    frame=  387 fps=2.0 q=61.0 size=    1246kB time=00:00:06.18 bitrate=1651.6kbits/s speed=0.0321x    frame=  388 fps=2.0 q=61.0 size=    1246kB time=00:00:06.20 bitrate=1646.2kbits/s speed=0.0321x    frame=  389 fps=2.0 q=61.0 size=    1246kB time=00:00:06.22 bitrate=1640.9kbits/s speed=0.0321x    frame=  390 fps=2.0 q=61.0 size=    1246kB time=00:00:06.24 bitrate=1635.7kbits/s speed=0.0321x    frame=  391 fps=2.0 q=61.0 size=    1246kB time=00:00:06.26 bitrate=1630.5kbits/s speed=0.032x    frame=  393 fps=2.0 q=61.0 size=    1246kB time=00:00:06.30 bitrate=1620.1kbits/s speed=0.0321x    frame=  394 fps=2.0 q=61.0 size=    1246kB time=00:00:06.32 bitrate=1615.0kbits/s speed=0.0319x    frame=  395 fps=2.0 q=61.0 size=    1246kB time=00:00:06.34 bitrate=1609.9kbits/s speed=0.0319x    frame=  398 fps=2.0 q=61.0 size=    1246kB time=00:00:06.40 bitrate=1594.8kbits/s speed=0.0318x    frame=  400 fps=2.0 q=61.0 size=    1246kB time=00:00:06.44 bitrate=1584.9kbits/s speed=0.0319x    frame=  402 fps=2.0 q=61.0 size=    1246kB time=00:00:06.48 bitrate=1575.1kbits/s speed=0.0317x    frame=  404 fps=2.0 q=61.0 size=    1246kB time=00:00:06.52 bitrate=1565.5kbits/s speed=0.0318x    frame=  406 fps=2.0 q=61.0 size=    1246kB time=00:00:06.56 bitrate=1555.9kbits/s speed=0.0319x    frame=  407 fps=2.0 q=61.0 size=    1246kB time=00:00:06.58 bitrate=1551.2kbits/s speed=0.0318x    frame=  408 fps=2.0 q=61.0 size=    1246kB time=00:00:06.60 bitrate=1546.5kbits/s speed=0.0316x    frame=  411 fps=2.0 q=61.0 size=    1246kB time=00:00:06.66 bitrate=1532.5kbits/s speed=0.0318x    frame=  412 fps=2.0 q=61.0 size=    1246kB time=00:00:06.68 bitrate=1528.0kbits/s speed=0.0318x    frame=  414 fps=2.0 q=61.0 size=    1246kB time=00:00:06.72 bitrate=1518.9kbits/s speed=0.0317x    frame=  415 fps=1.9 q=61.0 size=    1246kB time=00:00:06.74 bitrate=1514.4kbits/s speed=0.0316x    frame=  417 fps=1.9 q=61.0 size=    1246kB time=00:00:06.78 bitrate=1505.4kbits/s speed=0.0317x    frame=  420 fps=2.0 q=61.0 size=    1246kB time=00:00:06.84 bitrate=1492.2kbits/s speed=0.0318x    frame=  421 fps=1.9 q=61.0 size=    1246kB time=00:00:06.86 bitrate=1487.9kbits/s speed=0.0316x    frame=  424 fps=1.9 q=61.0 size=    1246kB time=00:00:06.92 bitrate=1475.0kbits/s speed=0.0316x    frame=  426 fps=1.9 q=61.0 size=    1246kB time=00:00:06.96 bitrate=1466.5kbits/s speed=0.0317x    frame=  427 fps=1.9 q=61.0 size=    1246kB time=00:00:06.98 bitrate=1462.3kbits/s speed=0.0317x    frame=  428 fps=1.9 q=61.0 size=    1246kB time=00:00:07.00 bitrate=1458.1kbits/s speed=0.0315x    frame=  430 fps=1.9 q=61.0 size=    1246kB time=00:00:07.04 bitrate=1449.8kbits/s speed=0.0316x    frame=  432 fps=1.9 q=61.0 size=    1246kB time=00:00:07.08 bitrate=1441.6kbits/s speed=0.0317x    frame=  433 fps=1.9 q=61.0 size=    1246kB time=00:00:07.10 bitrate=1437.6kbits/s speed=0.0316x    frame=  434 fps=1.9 q=61.0 size=    1246kB time=00:00:07.12 bitrate=1433.5kbits/s speed=0.0315x    frame=  437 fps=1.9 q=61.0 size=    1246kB time=00:00:07.18 bitrate=1421.6kbits/s speed=0.0315x    frame=  438 fps=1.9 q=61.0 size=    1246kB time=00:00:07.20 bitrate=1417.6kbits/s speed=0.0315x    frame=  440 fps=1.9 q=61.0 size=    1246kB time=00:00:07.24 bitrate=1409.8kbits/s speed=0.0316x    frame=  441 fps=1.9 q=61.0 size=    1246kB time=00:00:07.26 bitrate=1405.9kbits/s speed=0.0315x    frame=  442 fps=1.9 q=61.0 size=    1246kB time=00:00:07.28 bitrate=1402.0kbits/s speed=0.0315x    frame=  444 fps=1.9 q=61.0 size=    1246kB time=00:00:07.32 bitrate=1394.4kbits/s speed=0.0316x    frame=  445 fps=1.9 q=61.0 size=    1246kB time=00:00:07.34 bitrate=1390.6kbits/s speed=0.0315x    frame=  446 fps=1.9 q=61.0 size=    1246kB time=00:00:07.36 bitrate=1386.8kbits/s speed=0.0315x    frame=  447 fps=1.9 q=61.0 size=    1246kB time=00:00:07.38 bitrate=1383.1kbits/s speed=0.0315x    frame=  448 fps=1.9 q=61.0 size=    1246kB time=00:00:07.40 bitrate=1379.3kbits/s speed=0.0314x    frame=  449 fps=1.9 q=61.0 size=    1246kB time=00:00:07.42 bitrate=1375.6kbits/s speed=0.0314x    frame=  450 fps=1.9 q=61.0 size=    1246kB time=00:00:07.44 bitrate=1371.9kbits/s speed=0.0314x    frame=  452 fps=1.9 q=61.0 size=    1246kB time=00:00:07.48 bitrate=1364.6kbits/s speed=0.0315x    frame=  453 fps=1.9 q=61.0 size=    1246kB time=00:00:07.50 bitrate=1360.9kbits/s speed=0.0315x    frame=  454 fps=1.9 q=61.0 size=    1246kB time=00:00:07.52 bitrate=1357.3kbits/s speed=0.0313x    frame=  457 fps=1.9 q=61.0 size=    1246kB time=00:00:07.58 bitrate=1346.6kbits/s speed=0.0313x    frame=  458 fps=1.9 q=61.0 size=    1246kB time=00:00:07.60 bitrate=1343.0kbits/s speed=0.0313x    frame=  459 fps=1.9 q=61.0 size=    1246kB time=00:00:07.62 bitrate=1339.5kbits/s speed=0.0313x    frame=  461 fps=1.9 q=61.0 size=    1246kB time=00:00:07.66 bitrate=1332.5kbits/s speed=0.0313x    frame=  463 fps=1.9 q=61.0 size=    1246kB time=00:00:07.70 bitrate=1325.6kbits/s speed=0.0314x    frame=  464 fps=1.9 q=61.0 size=    1246kB time=00:00:07.72 bitrate=1322.1kbits/s speed=0.0314x    frame=  465 fps=1.9 q=61.0 size=    1246kB time=00:00:07.74 bitrate=1318.7kbits/s speed=0.0312x    frame=  467 fps=1.9 q=61.0 size=    1246kB time=00:00:07.78 bitrate=1312.0kbits/s speed=0.0313x    frame=  468 fps=1.9 q=61.0 size=    1246kB time=00:00:07.80 bitrate=1308.6kbits/s speed=0.0312x    frame=  469 fps=1.9 q=61.0 size=    1246kB time=00:00:07.82 bitrate=1305.2kbits/s speed=0.0312x    frame=  471 fps=1.9 q=61.0 size=    1246kB time=00:00:07.86 bitrate=1298.6kbits/s speed=0.0312x    frame=  473 fps=1.9 q=61.0 size=    1246kB time=00:00:07.90 bitrate=1292.0kbits/s speed=0.031x    frame=  475 fps=1.9 q=61.0 size=    1246kB time=00:00:07.94 bitrate=1285.5kbits/s speed=0.0311x    frame=  478 fps=1.9 q=61.0 size=    1246kB time=00:00:08.00 bitrate=1275.9kbits/s speed=0.0311x    frame=  479 fps=1.9 q=61.0 size=    1246kB time=00:00:08.02 bitrate=1272.7kbits/s speed=0.031x    frame=  481 fps=1.9 q=61.0 size=    1246kB time=00:00:08.06 bitrate=1266.4kbits/s speed=0.0311x    frame=  482 fps=1.9 q=61.0 size=    1246kB time=00:00:08.08 bitrate=1263.2kbits/s speed=0.031x    frame=  483 fps=1.9 q=61.0 size=    1246kB time=00:00:08.10 bitrate=1260.1kbits/s speed=0.0311x    frame=  485 fps=1.8 q=62.0 size=    1246kB time=00:00:08.14 bitrate=1253.9kbits/s speed=0.031x    frame=  486 fps=1.8 q=61.0 size=    1246kB time=00:00:08.16 bitrate=1250.9kbits/s speed=0.0309x    frame=  487 fps=1.8 q=62.0 size=    1246kB time=00:00:08.18 bitrate=1247.8kbits/s speed=0.0309x    frame=  488 fps=1.8 q=62.0 size=    1246kB time=00:00:08.20 bitrate=1244.8kbits/s speed=0.0309x    frame=  490 fps=1.8 q=62.0 size=    1246kB time=00:00:08.24 bitrate=1238.7kbits/s speed=0.031x    frame=  491 fps=1.8 q=62.0 size=    1246kB time=00:00:08.26 bitrate=1235.7kbits/s speed=0.0309x    frame=  493 fps=1.8 q=62.0 size=    1246kB time=00:00:08.30 bitrate=1229.8kbits/s speed=0.031x    frame=  494 fps=1.8 q=62.0 size=    1246kB time=00:00:08.32 bitrate=1226.8kbits/s speed=0.0308x    frame=  495 fps=1.8 q=62.0 size=    1246kB time=00:00:08.34 bitrate=1223.9kbits/s speed=0.0308x    frame=  496 fps=1.8 q=62.0 size=    1246kB time=00:00:08.36 bitrate=1220.9kbits/s speed=0.0309x    frame=  498 fps=1.8 q=62.0 size=    1246kB time=00:00:08.40 bitrate=1215.1kbits/s speed=0.0308x    frame=  499 fps=1.8 q=62.0 size=    1246kB time=00:00:08.42 bitrate=1212.2kbits/s speed=0.0308x    frame=  500 fps=1.8 q=62.0 size=    1246kB time=00:00:08.44 bitrate=1209.4kbits/s speed=0.0307x    frame=  500 fps=1.5 q=-1.0 Lsize=    2557kB time=00:00:09.94 bitrate=2107.1kbits/s speed=0.0305x    
video:2553kB audio:0kB subtitle:0kB other streams:0kB global headers:0kB muxing overhead: 0.167141%
bench: utime=1236.224s
bench: maxrss=3270836kB
[libx264 @ 0x3a0e1c0] frame I:2     Avg QP:47.91  size: 70969
[libx264 @ 0x3a0e1c0] frame P:114   Avg QP:50.98  size: 15858
[libx264 @ 0x3a0e1c0] frame B:384   Avg QP:50.95  size:  1728
[libx264 @ 0x3a0e1c0] consecutive B-frames:  0.4%  0.0%  1.2% 60.0% 30.0%  8.4%  0.0%  0.0%  0.0%
[libx264 @ 0x3a0e1c0] mb I  I16..4: 51.0% 48.2%  0.8%
[libx264 @ 0x3a0e1c0] mb P  I16..4: 20.3%  9.2%  0.0%  P16..4: 11.7%  0.1%  0.7%  0.0%  0.0%    skip:58.1%
[libx264 @ 0x3a0e1c0] mb B  I16..4:  0.0%  0.0%  0.0%  B16..8:  5.7%  0.0%  0.0%  direct: 0.0%  skip:94.2%  L0:31.4% L1:68.5% BI: 0.1%
[libx264 @ 0x3a0e1c0] final ratefactor: 53.37
[libx264 @ 0x3a0e1c0] 8x8 transform intra:32.2% inter:97.8%
[libx264 @ 0x3a0e1c0] direct mvs  spatial:99.2% temporal:0.8%
[libx264 @ 0x3a0e1c0] coded y,uvDC,uvAC intra: 1.9% 26.2% 0.3% inter: 0.0% 0.5% 0.0%
[libx264 @ 0x3a0e1c0] i16 v,h,dc,p: 79% 16%  2%  3%
[libx264 @ 0x3a0e1c0] i8 v,h,dc,ddl,ddr,vr,hd,vl,hu:  2%  1% 89%  1%  1%  1%  1%  1%  1%
[libx264 @ 0x3a0e1c0] i4 v,h,dc,ddl,ddr,vr,hd,vl,hu:  5%  4%  3% 15% 15% 15% 13% 12% 18%
[libx264 @ 0x3a0e1c0] i8c dc,h,v,p: 93%  3%  3%  0%
[libx264 @ 0x3a0e1c0] Weighted P-Frames: Y:1.8% UV:0.9%
[libx264 @ 0x3a0e1c0] ref P L0: 44.5%  0.5% 13.1%  7.3%  4.6%  6.5%  4.9%  2.8%  2.0%  2.6%  1.8%  2.3%  1.6%  2.2%  1.9%  1.3%
[libx264 @ 0x3a0e1c0] ref B L0: 79.9%  4.1%  3.9%  1.5%  1.9%  1.2%  1.6%  0.6%  1.0%  0.7%  0.9%  0.6%  0.9%  0.5%  0.7%
[libx264 @ 0x3a0e1c0] ref B L1: 98.5%  1.5%
[libx264 @ 0x3a0e1c0] kb/s:2090.61
